<svg width="28" height="28" viewBox="0 0 28 28" fill="none" xmlns="http://www.w3.org/2000/svg">
<path d="M15.8521 11.997C16.0684 11.9912 16.253 11.8176 16.2688 11.5955V11.5327C16.2847 10.7935 15.8368 10.124 15.1557 9.86543C14.9394 9.79103 14.7021 9.90763 14.6229 10.1292C14.5491 10.3508 14.6651 10.5935 14.8867 10.6721C15.2248 10.7988 15.4512 11.1317 15.4512 11.5005V11.5169C15.4411 11.6377 15.4775 11.7543 15.5514 11.844C15.6252 11.9337 15.736 11.9859 15.8521 11.997Z" fill="#9610FF"/>
<path fill-rule="evenodd" clip-rule="evenodd" d="M12.4179 22.9715C18.2451 22.9715 22.9686 18.2471 22.9686 12.419C22.9686 6.59096 18.2451 1.86664 12.4179 1.86664C6.59075 1.86664 1.86719 6.59096 1.86719 12.419C1.86719 14.1074 2.2639 15.703 2.96763 17.118C3.15542 17.4937 3.21768 17.9232 3.10901 18.3295L2.48124 20.6784C2.41929 20.9108 2.41953 21.1554 2.48192 21.3877C2.5443 21.6199 2.66665 21.8317 2.83668 22.0018C3.00672 22.1719 3.21847 22.2942 3.45071 22.3566C3.68294 22.419 3.9275 22.4193 4.15986 22.3573L6.50845 21.7294C6.91613 21.6268 7.34726 21.6767 7.72073 21.8698C9.17981 22.5965 10.7879 22.9736 12.4179 22.9715ZM14.4489 8.19817C14.7817 8.19817 15.1141 8.24513 15.4301 8.35118C17.3772 8.98431 18.0788 11.1212 17.4927 12.9889C17.1604 13.9434 16.617 14.8145 15.9054 15.5262C14.8867 16.5129 13.7689 17.3887 12.5656 18.1432L12.4337 18.2229L12.2965 18.1379C11.089 17.3887 9.96485 16.5129 8.93668 15.5209C8.2298 14.8092 7.68591 13.9434 7.34829 12.9889C6.75218 11.1212 7.45379 8.98431 9.42202 8.3401C9.575 8.28734 9.73273 8.2504 9.89099 8.22982H9.95429C10.1025 8.2082 10.2497 8.19817 10.3974 8.19817H10.4554C10.7878 8.2082 11.1096 8.26623 11.4214 8.37229H11.4525C11.4736 8.3823 11.4894 8.39338 11.5 8.40341C11.6165 8.44087 11.7268 8.48309 11.8323 8.54112L12.0328 8.63082C12.0812 8.65665 12.1356 8.69613 12.1826 8.73028C12.2123 8.75185 12.2392 8.77135 12.2596 8.78382L12.2858 8.79916C12.3309 8.82552 12.3782 8.85313 12.4179 8.88353C13.0039 8.4356 13.7156 8.1929 14.4489 8.19817Z" fill="#9610FF"/>
<path d="M10.3078 23.9787C12.0353 25.3762 14.1908 26.137 16.4127 26.1333C17.832 26.1354 19.2345 25.8254 20.5208 25.2252L24.9712 26.1138C25.128 26.1451 25.2901 26.1371 25.4431 26.0907C25.5961 26.0443 25.7353 25.9609 25.8484 25.8478C25.9614 25.7347 26.0449 25.5955 26.0913 25.4424C26.1377 25.2894 26.1456 25.1273 26.1144 24.9705L25.2259 20.5213C25.8251 19.2338 26.135 17.8307 26.1338 16.4105C26.1368 14.1896 25.3762 12.0352 23.9796 10.3086C24.2556 11.7469 24.2602 13.2243 23.9932 14.6644C24.4014 16.4468 24.1708 18.3159 23.3419 19.9457C23.2425 20.1406 23.2117 20.3632 23.2544 20.5777L23.9232 23.9223L20.5811 23.2534C20.366 23.2102 20.1426 23.2411 19.9473 23.3409C18.318 24.1708 16.4488 24.4014 14.6667 23.9923C13.2257 24.2606 11.7471 24.256 10.3078 23.9787Z" fill="#9610FF"/>
</svg>
