<svg width="52" height="52" viewBox="0 0 52 52" fill="none" xmlns="http://www.w3.org/2000/svg">
<path d="M0 26C0 11.6406 11.6406 0 26 0C40.3594 0 52 11.6406 52 26C52 40.3594 40.3594 52 26 52C11.6406 52 0 40.3594 0 26Z" fill="#F75555"/>
<path d="M27.8799 26L33.6132 20.28C33.8643 20.0289 34.0054 19.6884 34.0054 19.3333C34.0054 18.9782 33.8643 18.6377 33.6132 18.3866C33.3622 18.1356 33.0217 17.9945 32.6666 17.9945C32.3115 17.9945 31.971 18.1356 31.7199 18.3866L25.9999 24.12L20.2799 18.3866C20.0288 18.1356 19.6883 17.9945 19.3333 17.9945C18.9782 17.9945 18.6377 18.1356 18.3866 18.3866C18.1355 18.6377 17.9945 18.9782 17.9945 19.3333C17.9945 19.6884 18.1355 20.0289 18.3866 20.28L24.1199 26L18.3866 31.72C18.2616 31.8439 18.1624 31.9914 18.0947 32.1539C18.027 32.3163 17.9922 32.4906 17.9922 32.6666C17.9922 32.8426 18.027 33.0169 18.0947 33.1794C18.1624 33.3419 18.2616 33.4893 18.3866 33.6133C18.5105 33.7383 18.658 33.8375 18.8205 33.9052C18.983 33.9728 19.1572 34.0077 19.3333 34.0077C19.5093 34.0077 19.6835 33.9728 19.846 33.9052C20.0085 33.8375 20.156 33.7383 20.2799 33.6133L25.9999 27.88L31.7199 33.6133C31.8439 33.7383 31.9913 33.8375 32.1538 33.9052C32.3163 33.9728 32.4906 34.0077 32.6666 34.0077C32.8426 34.0077 33.0169 33.9728 33.1794 33.9052C33.3418 33.8375 33.4893 33.7383 33.6132 33.6133C33.7382 33.4893 33.8374 33.3419 33.9051 33.1794C33.9728 33.0169 34.0076 32.8426 34.0076 32.6666C34.0076 32.4906 33.9728 32.3163 33.9051 32.1539C33.8374 31.9914 33.7382 31.8439 33.6132 31.72L27.8799 26Z" fill="white"/>
</svg>
