<svg width="52" height="52" viewBox="0 0 52 52" fill="none" xmlns="http://www.w3.org/2000/svg">
<path d="M0 26C0 11.6406 11.6406 0 26 0V0C40.3594 0 52 11.6406 52 26V26C52 40.3594 40.3594 52 26 52V52C11.6406 52 0 40.3594 0 26V26Z" fill="#9610FF"/>
<path fill-rule="evenodd" clip-rule="evenodd" d="M31.1308 13.3342C31.9721 13.3342 32.8121 13.4529 33.6108 13.7209C38.5321 15.3209 40.3054 20.7209 38.8241 25.4409C37.9841 27.8529 36.6108 30.0542 34.8121 31.8529C32.2374 34.3462 29.4121 36.5595 26.3708 38.4662L26.0374 38.6675L25.6908 38.4529C22.6388 36.5595 19.7974 34.3462 17.1988 31.8395C15.4121 30.0409 14.0374 27.8529 13.1841 25.4409C11.6774 20.7209 13.4508 15.3209 18.4254 13.6929C18.8121 13.5595 19.2108 13.4662 19.6108 13.4142H19.7708C20.1454 13.3595 20.5174 13.3342 20.8908 13.3342H21.0374C21.8774 13.3595 22.6908 13.5062 23.4788 13.7742H23.5574C23.6108 13.7995 23.6508 13.8275 23.6774 13.8529C23.9721 13.9475 24.2508 14.0542 24.5174 14.2009L25.0241 14.4275C25.1465 14.4928 25.2839 14.5926 25.4027 14.6788C25.4779 14.7335 25.5457 14.7827 25.5974 14.8142C25.6192 14.827 25.6413 14.8399 25.6636 14.853C25.7779 14.9197 25.897 14.9892 25.9974 15.0662C27.4788 13.9342 29.2774 13.3209 31.1308 13.3342ZM34.6778 22.9342C35.2245 22.9196 35.6911 22.4809 35.7311 21.9196V21.7609C35.7711 19.8929 34.6391 18.2009 32.9178 17.5476C32.3711 17.3596 31.7711 17.6542 31.5711 18.2142C31.3845 18.7742 31.6778 19.3876 32.2378 19.5862C33.0925 19.9062 33.6645 20.7476 33.6645 21.6796V21.7209C33.6391 22.0262 33.7311 22.3209 33.9178 22.5476C34.1045 22.7742 34.3845 22.9062 34.6778 22.9342Z" fill="white"/>
</svg>
