<svg width="52" height="52" viewBox="0 0 52 52" fill="none" xmlns="http://www.w3.org/2000/svg">
<path d="M0.5 26C0.5 11.9167 11.9167 0.5 26 0.5C40.0833 0.5 51.5 11.9167 51.5 26C51.5 40.0833 40.0833 51.5 26 51.5C11.9167 51.5 0.5 40.0833 0.5 26Z" stroke="#FF981F"/>
<path d="M33.8892 29.0935C33.5439 29.4282 33.3852 29.9122 33.4639 30.3868L34.6492 36.9468C34.7492 37.5028 34.5146 38.0655 34.0492 38.3868C33.5932 38.7202 32.9866 38.7602 32.4892 38.4935L26.5839 35.4135C26.3786 35.3042 26.1506 35.2455 25.9172 35.2388H25.5559C25.4306 35.2575 25.3079 35.2975 25.1959 35.3588L19.2892 38.4535C18.9972 38.6002 18.6666 38.6522 18.3426 38.6002C17.5532 38.4508 17.0266 37.6988 17.1559 36.9055L18.3426 30.3455C18.4212 29.8668 18.2626 29.3802 17.9172 29.0402L13.1026 24.3735C12.6999 23.9828 12.5599 23.3962 12.7439 22.8668C12.9226 22.3388 13.3786 21.9535 13.9292 21.8668L20.5559 20.9055C21.0599 20.8535 21.5026 20.5468 21.7292 20.0935L24.6492 14.1068C24.7186 13.9735 24.8079 13.8508 24.9159 13.7468L25.0359 13.6535C25.0986 13.5842 25.1706 13.5268 25.2506 13.4802L25.3959 13.4268L25.6226 13.3335H26.1839C26.6852 13.3855 27.1266 13.6855 27.3572 14.1335L30.3159 20.0935C30.5292 20.5295 30.9439 20.8322 31.4226 20.9055L38.0492 21.8668C38.6092 21.9468 39.0772 22.3335 39.2626 22.8668C39.4372 23.4015 39.2866 23.9882 38.8759 24.3735L33.8892 29.0935Z" fill="#FF981F"/>
</svg>
